<svg width="22" height="22" viewBox="0 0 22 22" fill="none" xmlns="http://www.w3.org/2000/svg">
<path d="M10.9995 18.4606C12.0086 18.4606 12.9301 18.3507 13.7706 18.1609L11.8966 16.2868C11.6054 16.3092 11.3099 16.3273 10.9995 16.3273C5.29191 16.3273 3.08076 12.225 2.54531 10.9941C2.94737 10.0968 3.4904 9.26964 4.1538 8.54396L2.66264 7.05278C1.02214 8.83089 0.40029 10.6218 0.388556 10.657C0.31498 10.876 0.31498 11.1131 0.388556 11.3322C0.410956 11.4026 2.85783 18.4606 10.9995 18.4606ZM10.9995 3.5275C9.04009 3.5275 7.43052 3.94989 6.08869 4.57388L2.15385 0.640076L0.645617 2.14832L19.8452 21.348L21.3534 19.8398L17.8132 16.2996C20.6014 14.2185 21.5966 11.377 21.6115 11.3322C21.6851 11.1131 21.6851 10.876 21.6115 10.657C21.5881 10.5855 19.1412 3.5275 10.9995 3.5275ZM16.3029 14.7892L13.8709 12.3572C14.0736 11.9412 14.1994 11.4836 14.1994 10.9941C14.1994 9.24368 12.7499 7.7941 10.9995 7.7941C10.5099 7.7941 10.0523 7.91997 9.63741 8.1237L7.70892 6.19519C8.76758 5.8319 9.88029 5.6512 10.9995 5.6608C16.7071 5.6608 18.9183 9.76314 19.4537 10.9941C19.1316 11.7322 18.21 13.4922 16.3029 14.7892Z" fill="#767676"/>
</svg>
